<svg xmlns="http://www.w3.org/2000/svg" viewBox="0 0 1200 630" role="img" aria-label="How to Change Two-Factor Authentication">
<defs>
<linearGradient id="bg-a-howtochangetwofactorauthentication" x1="0" y1="0" x2="1" y2="1">
<stop offset="0%" stopColor="#0D0E16"/>
<stop offset="100%" stopColor="#1B1E31"/>
</linearGradient>
<radialGradient id="glow-a-howtochangetwofactorauthentication" cx="72%" cy="18%" r="85%">
<stop offset="0%" stopColor="#27f1c2" stopOpacity="0.34"/>
<stop offset="100%" stopColor="#27f1c2" stopOpacity="0"/>
</radialGradient>
<pattern id="grid-a-howtochangetwofactorauthentication" width="44" height="44" patternUnits="userSpaceOnUse">
<path d="M44 0H0V44" fill="none" stroke="#8891A6" strokeOpacity="0.1" strokeWidth="1"/>
</pattern>
</defs>
<rect width="1200" height="630" fill="url(#bg-a-howtochangetwofactorauthentication)"/><rect width="1200" height="630" fill="url(#glow-a-howtochangetwofactorauthentication)"/><rect width="1200" height="630" fill="url(#grid-a-howtochangetwofactorauthentication)"/>
<path d="M116 368 L116 574 L116 605 L116 600 L116 630" fill="none" stroke="#27f1c2" strokeOpacity="0.16" strokeWidth="2"/>
<circle cx="116" cy="630" r="5" fill="#27f1c2" fillOpacity="0.35"/><path d="M25 560 L25 630 L25 630 L0 630" fill="none" stroke="#27f1c2" strokeOpacity="0.16" strokeWidth="2"/>
<circle cx="0" cy="630" r="5" fill="#27f1c2" fillOpacity="0.35"/><path d="M1146 417 L1146 474 L1146 488" fill="none" stroke="#27f1c2" strokeOpacity="0.16" strokeWidth="2"/>
<circle cx="1146" cy="488" r="5" fill="#27f1c2" fillOpacity="0.35"/><path d="M976 426 L1034 426 L1034 380 L1034 328" fill="none" stroke="#27f1c2" strokeOpacity="0.16" strokeWidth="2"/>
<circle cx="1034" cy="328" r="5" fill="#27f1c2" fillOpacity="0.35"/><path d="M867 536 L867 543 L1007 543 L1015 543" fill="none" stroke="#27f1c2" strokeOpacity="0.16" strokeWidth="2"/>
<circle cx="1015" cy="543" r="5" fill="#27f1c2" fillOpacity="0.35"/><path d="M907 460 L907 580 L907 630 L907 630" fill="none" stroke="#27f1c2" strokeOpacity="0.16" strokeWidth="2"/>
<circle cx="907" cy="630" r="5" fill="#27f1c2" fillOpacity="0.35"/><path d="M288 276 L288 465 L288 629 L288 630" fill="none" stroke="#27f1c2" strokeOpacity="0.16" strokeWidth="2"/>
<circle cx="288" cy="630" r="5" fill="#27f1c2" fillOpacity="0.35"/><path d="M885 232 L885 260 L1037 260 L1064 260 L1200 260" fill="none" stroke="#27f1c2" strokeOpacity="0.16" strokeWidth="2"/>
<circle cx="1200" cy="260" r="5" fill="#27f1c2" fillOpacity="0.35"/><path d="M202 341 L202 419 L253 419" fill="none" stroke="#27f1c2" strokeOpacity="0.16" strokeWidth="2"/>
<circle cx="253" cy="419" r="5" fill="#27f1c2" fillOpacity="0.35"/><path d="M818 151 L996 151 L1066 151 L1066 156" fill="none" stroke="#27f1c2" strokeOpacity="0.16" strokeWidth="2"/>
<circle cx="1066" cy="156" r="5" fill="#27f1c2" fillOpacity="0.35"/><path d="M221 337 L315 337 L440 337" fill="none" stroke="#27f1c2" strokeOpacity="0.16" strokeWidth="2"/>
<circle cx="440" cy="337" r="5" fill="#27f1c2" fillOpacity="0.35"/>
<rect x="0" y="0" width="1200" height="6" fill="#27f1c2"/>
<text x="86" y="142" fontFamily="'Big Shoulders Display', sans-serif" fontSize="92" fontWeight="800" fill="#F2F3F7" opacity="0.92">AI TECH</text>
<rect x="86" y="166" width="120" height="5" fill="#27f1c2"/>
<rect x="86" y="60" width="10" height="10" fill="#27f1c2"/>
<rect x="104" y="78" width="6" height="6" fill="#27f1c2" opacity="0.5"/>
<g transform="translate(1030 260)" fill="none" stroke="#27f1c2" strokeWidth="5" strokeLinecap="round" strokeLinejoin="round"><path d="M65 0 L130 16.900000000000002 L122.19999999999999 85.8 Q101.4 117 65 130 Q28.6 117 7.8 85.8 L0 16.900000000000002 Z"/><path d="M36.400000000000006 65 L57.2 85.8 L96.2 41.6" strokeWidth="5"/></g>
<text x="86" y="360" fontFamily="'Big Shoulders Display', sans-serif" fontSize="64" fontWeight="800" fill="#F2F3F7">How to Change Two-Factor</text>
<text x="86" y="429" fontFamily="'Big Shoulders Display', sans-serif" fontSize="64" fontWeight="800" fill="#F2F3F7">Authentication</text>
<text x="86" y="566" fontFamily="IBM Plex Mono, monospace" fontSize="30" letterSpacing="10" fill="#8891A6">TWO-FACTOR</text>
<text x="86" y="470" fontFamily="IBM Plex Mono, monospace" fontSize="20" letterSpacing="6" fill="#27f1c2">AI TECH MEDIA</text>
<rect x="1096" y="460" width="18" height="110" fill="#27f1c2" opacity="0.9"/>
<rect x="1122" y="484" width="8" height="86" fill="#27f1c2" opacity="0.45"/>
<rect x="86" y="594" width="1028" height="2" fill="#27f1c2" opacity="0.35"/>
</svg>
