<svg xmlns="http://www.w3.org/2000/svg" viewBox="0 0 1200 630" role="img" aria-label="How to Turn Off Mac Notifications">
<defs>
<linearGradient id="bg-a-howtoturnoffmacnotifications" x1="0" y1="0" x2="1" y2="1">
<stop offset="0%" stopColor="#0D0E16"/>
<stop offset="100%" stopColor="#1B1E31"/>
</linearGradient>
<radialGradient id="glow-a-howtoturnoffmacnotifications" cx="72%" cy="18%" r="85%">
<stop offset="0%" stopColor="#2778f1" stopOpacity="0.34"/>
<stop offset="100%" stopColor="#2778f1" stopOpacity="0"/>
</radialGradient>
<pattern id="grid-a-howtoturnoffmacnotifications" width="44" height="44" patternUnits="userSpaceOnUse">
<path d="M44 0H0V44" fill="none" stroke="#8891A6" strokeOpacity="0.1" strokeWidth="1"/>
</pattern>
</defs>
<rect width="1200" height="630" fill="url(#bg-a-howtoturnoffmacnotifications)"/><rect width="1200" height="630" fill="url(#glow-a-howtoturnoffmacnotifications)"/><rect width="1200" height="630" fill="url(#grid-a-howtoturnoffmacnotifications)"/>
<path d="M824 133 L824 113 L884 113 L993 113" fill="none" stroke="#2778f1" strokeOpacity="0.16" strokeWidth="2"/>
<circle cx="993" cy="113" r="5" fill="#2778f1" fillOpacity="0.35"/><path d="M867 17 L867 163 L864 163" fill="none" stroke="#2778f1" strokeOpacity="0.16" strokeWidth="2"/>
<circle cx="864" cy="163" r="5" fill="#2778f1" fillOpacity="0.35"/><path d="M604 353 L604 419 L604 471 L604 518" fill="none" stroke="#2778f1" strokeOpacity="0.16" strokeWidth="2"/>
<circle cx="604" cy="518" r="5" fill="#2778f1" fillOpacity="0.35"/><path d="M926 376 L926 354 L1055 354" fill="none" stroke="#2778f1" strokeOpacity="0.16" strokeWidth="2"/>
<circle cx="1055" cy="354" r="5" fill="#2778f1" fillOpacity="0.35"/><path d="M789 257 L756 257 L756 332 L906 332" fill="none" stroke="#2778f1" strokeOpacity="0.16" strokeWidth="2"/>
<circle cx="906" cy="332" r="5" fill="#2778f1" fillOpacity="0.35"/><path d="M315 417 L284 417 L331 417" fill="none" stroke="#2778f1" strokeOpacity="0.16" strokeWidth="2"/>
<circle cx="331" cy="417" r="5" fill="#2778f1" fillOpacity="0.35"/><path d="M100 286 L100 237 L100 401 L89 401" fill="none" stroke="#2778f1" strokeOpacity="0.16" strokeWidth="2"/>
<circle cx="89" cy="401" r="5" fill="#2778f1" fillOpacity="0.35"/><path d="M1024 152 L1007 152 L1088 152" fill="none" stroke="#2778f1" strokeOpacity="0.16" strokeWidth="2"/>
<circle cx="1088" cy="152" r="5" fill="#2778f1" fillOpacity="0.35"/><path d="M11 456 L48 456 L210 456" fill="none" stroke="#2778f1" strokeOpacity="0.16" strokeWidth="2"/>
<circle cx="210" cy="456" r="5" fill="#2778f1" fillOpacity="0.35"/><path d="M353 100 L353 166 L353 144" fill="none" stroke="#2778f1" strokeOpacity="0.16" strokeWidth="2"/>
<circle cx="353" cy="144" r="5" fill="#2778f1" fillOpacity="0.35"/><path d="M35 365 L156 365 L131 365 L131 542 L131 630" fill="none" stroke="#2778f1" strokeOpacity="0.16" strokeWidth="2"/>
<circle cx="131" cy="630" r="5" fill="#2778f1" fillOpacity="0.35"/>
<rect x="0" y="0" width="1200" height="6" fill="#2778f1"/>
<text x="86" y="142" fontFamily="'Big Shoulders Display', sans-serif" fontSize="92" fontWeight="800" fill="#F2F3F7" opacity="0.92">AI TECH</text>
<rect x="86" y="166" width="120" height="5" fill="#2778f1"/>
<rect x="86" y="60" width="10" height="10" fill="#2778f1"/>
<rect x="104" y="78" width="6" height="6" fill="#2778f1" opacity="0.5"/>
<g transform="translate(1030 260)" fill="none" stroke="#2778f1" strokeWidth="5" strokeLinecap="round" strokeLinejoin="round"><rect x="0" y="0" width="130" height="93.6" rx="16.900000000000002"/><line x1="0" y1="130" x2="130" y2="130"/><circle cx="19.5" cy="23.4" r="6.5" fill="#2778f1" stroke="none"/><circle cx="37.699999999999996" cy="23.4" r="6.5"/><circle cx="55.9" cy="23.4" r="6.5"/></g>
<text x="86" y="360" fontFamily="'Big Shoulders Display', sans-serif" fontSize="64" fontWeight="800" fill="#F2F3F7">How to Turn Off Mac Notifications</text>
<text x="86" y="566" fontFamily="IBM Plex Mono, monospace" fontSize="30" letterSpacing="10" fill="#8891A6">NOTIFICATIONS</text>
<text x="86" y="470" fontFamily="IBM Plex Mono, monospace" fontSize="20" letterSpacing="6" fill="#2778f1">AI TECH MEDIA</text>
<rect x="1096" y="460" width="18" height="110" fill="#2778f1" opacity="0.9"/>
<rect x="1122" y="484" width="8" height="86" fill="#2778f1" opacity="0.45"/>
<rect x="86" y="594" width="1028" height="2" fill="#2778f1" opacity="0.35"/>
</svg>
