<svg xmlns="http://www.w3.org/2000/svg" viewBox="0 0 1200 630" role="img" aria-label="How to Change the Mac Display Resolution">
<defs>
<linearGradient id="bg-a-howtochangethemacdisplayresolution" x1="0" y1="0" x2="1" y2="1">
<stop offset="0%" stopColor="#0D0E16"/>
<stop offset="100%" stopColor="#1B1E31"/>
</linearGradient>
<radialGradient id="glow-a-howtochangethemacdisplayresolution" cx="72%" cy="18%" r="85%">
<stop offset="0%" stopColor="#2778f1" stopOpacity="0.34"/>
<stop offset="100%" stopColor="#2778f1" stopOpacity="0"/>
</radialGradient>
<pattern id="grid-a-howtochangethemacdisplayresolution" width="44" height="44" patternUnits="userSpaceOnUse">
<path d="M44 0H0V44" fill="none" stroke="#8891A6" strokeOpacity="0.1" strokeWidth="1"/>
</pattern>
</defs>
<rect width="1200" height="630" fill="url(#bg-a-howtochangethemacdisplayresolution)"/><rect width="1200" height="630" fill="url(#glow-a-howtochangethemacdisplayresolution)"/><rect width="1200" height="630" fill="url(#grid-a-howtochangethemacdisplayresolution)"/>
<path d="M92 198 L92 265 L92 215" fill="none" stroke="#2778f1" strokeOpacity="0.16" strokeWidth="2"/>
<circle cx="92" cy="215" r="5" fill="#2778f1" fillOpacity="0.35"/><path d="M1090 446 L1116 446 L1116 503 L1186 503 L1200 503" fill="none" stroke="#2778f1" strokeOpacity="0.16" strokeWidth="2"/>
<circle cx="1200" cy="503" r="5" fill="#2778f1" fillOpacity="0.35"/><path d="M247 290 L247 344 L247 351 L247 441 L247 630" fill="none" stroke="#2778f1" strokeOpacity="0.16" strokeWidth="2"/>
<circle cx="247" cy="630" r="5" fill="#2778f1" fillOpacity="0.35"/><path d="M702 478 L682 478 L682 605 L682 630 L674 630" fill="none" stroke="#2778f1" strokeOpacity="0.16" strokeWidth="2"/>
<circle cx="674" cy="630" r="5" fill="#2778f1" fillOpacity="0.35"/><path d="M1133 583 L1200 583 L1200 583 L1200 583 L1200 613" fill="none" stroke="#2778f1" strokeOpacity="0.16" strokeWidth="2"/>
<circle cx="1200" cy="613" r="5" fill="#2778f1" fillOpacity="0.35"/><path d="M936 589 L1089 589 L1162 589" fill="none" stroke="#2778f1" strokeOpacity="0.16" strokeWidth="2"/>
<circle cx="1162" cy="589" r="5" fill="#2778f1" fillOpacity="0.35"/><path d="M408 338 L408 361 L418 361 L418 492 L388 492" fill="none" stroke="#2778f1" strokeOpacity="0.16" strokeWidth="2"/>
<circle cx="388" cy="492" r="5" fill="#2778f1" fillOpacity="0.35"/><path d="M24 599 L24 630 L24 630 L134 630 L235 630" fill="none" stroke="#2778f1" strokeOpacity="0.16" strokeWidth="2"/>
<circle cx="235" cy="630" r="5" fill="#2778f1" fillOpacity="0.35"/><path d="M1073 376 L1092 376 L1092 480" fill="none" stroke="#2778f1" strokeOpacity="0.16" strokeWidth="2"/>
<circle cx="1092" cy="480" r="5" fill="#2778f1" fillOpacity="0.35"/><path d="M806 270 L885 270 L931 270" fill="none" stroke="#2778f1" strokeOpacity="0.16" strokeWidth="2"/>
<circle cx="931" cy="270" r="5" fill="#2778f1" fillOpacity="0.35"/><path d="M151 226 L276 226 L276 321 L276 490" fill="none" stroke="#2778f1" strokeOpacity="0.16" strokeWidth="2"/>
<circle cx="276" cy="490" r="5" fill="#2778f1" fillOpacity="0.35"/>
<rect x="0" y="0" width="1200" height="6" fill="#2778f1"/>
<text x="86" y="142" fontFamily="'Big Shoulders Display', sans-serif" fontSize="92" fontWeight="800" fill="#F2F3F7" opacity="0.92">AI TECH</text>
<rect x="86" y="166" width="120" height="5" fill="#2778f1"/>
<rect x="86" y="60" width="10" height="10" fill="#2778f1"/>
<rect x="104" y="78" width="6" height="6" fill="#2778f1" opacity="0.5"/>
<g transform="translate(1030 260)" fill="none" stroke="#2778f1" strokeWidth="5" strokeLinecap="round" strokeLinejoin="round"><rect x="0" y="0" width="130" height="93.6" rx="16.900000000000002"/><line x1="0" y1="130" x2="130" y2="130"/><circle cx="19.5" cy="23.4" r="6.5" fill="#2778f1" stroke="none"/><circle cx="37.699999999999996" cy="23.4" r="6.5"/><circle cx="55.9" cy="23.4" r="6.5"/></g>
<text x="86" y="360" fontFamily="'Big Shoulders Display', sans-serif" fontSize="64" fontWeight="800" fill="#F2F3F7">How to Change the Mac Display</text>
<text x="86" y="429" fontFamily="'Big Shoulders Display', sans-serif" fontSize="64" fontWeight="800" fill="#F2F3F7">Resolution</text>
<text x="86" y="566" fontFamily="IBM Plex Mono, monospace" fontSize="30" letterSpacing="10" fill="#8891A6">DISPLAY</text>
<text x="86" y="470" fontFamily="IBM Plex Mono, monospace" fontSize="20" letterSpacing="6" fill="#2778f1">AI TECH MEDIA</text>
<rect x="1096" y="460" width="18" height="110" fill="#2778f1" opacity="0.9"/>
<rect x="1122" y="484" width="8" height="86" fill="#2778f1" opacity="0.45"/>
<rect x="86" y="594" width="1028" height="2" fill="#2778f1" opacity="0.35"/>
</svg>
