<svg xmlns="http://www.w3.org/2000/svg" viewBox="0 0 1200 630" role="img" aria-label="How to Set Up Private Browsing in Any Browser">
<defs>
<linearGradient id="bg-a-howtosetupprivatebrowsinginanybrowser" x1="0" y1="0" x2="1" y2="1">
<stop offset="0%" stopColor="#0D0E16"/>
<stop offset="100%" stopColor="#1B1E31"/>
</linearGradient>
<radialGradient id="glow-a-howtosetupprivatebrowsinginanybrowser" cx="72%" cy="18%" r="85%">
<stop offset="0%" stopColor="#27f1d0" stopOpacity="0.34"/>
<stop offset="100%" stopColor="#27f1d0" stopOpacity="0"/>
</radialGradient>
<pattern id="grid-a-howtosetupprivatebrowsinginanybrowser" width="44" height="44" patternUnits="userSpaceOnUse">
<path d="M44 0H0V44" fill="none" stroke="#8891A6" strokeOpacity="0.1" strokeWidth="1"/>
</pattern>
</defs>
<rect width="1200" height="630" fill="url(#bg-a-howtosetupprivatebrowsinginanybrowser)"/><rect width="1200" height="630" fill="url(#glow-a-howtosetupprivatebrowsinginanybrowser)"/><rect width="1200" height="630" fill="url(#grid-a-howtosetupprivatebrowsinginanybrowser)"/>
<path d="M113 366 L113 472 L113 513" fill="none" stroke="#27f1d0" strokeOpacity="0.16" strokeWidth="2"/>
<circle cx="113" cy="513" r="5" fill="#27f1d0" fillOpacity="0.35"/><path d="M241 598 L241 630 L191 630" fill="none" stroke="#27f1d0" strokeOpacity="0.16" strokeWidth="2"/>
<circle cx="191" cy="630" r="5" fill="#27f1d0" fillOpacity="0.35"/><path d="M784 236 L784 404 L980 404 L980 480 L1091 480" fill="none" stroke="#27f1d0" strokeOpacity="0.16" strokeWidth="2"/>
<circle cx="1091" cy="480" r="5" fill="#27f1d0" fillOpacity="0.35"/><path d="M1114 202 L1114 347 L1200 347 L1200 347 L1200 371" fill="none" stroke="#27f1d0" strokeOpacity="0.16" strokeWidth="2"/>
<circle cx="1200" cy="371" r="5" fill="#27f1d0" fillOpacity="0.35"/><path d="M1154 580 L1154 604 L1200 604 L1200 595" fill="none" stroke="#27f1d0" strokeOpacity="0.16" strokeWidth="2"/>
<circle cx="1200" cy="595" r="5" fill="#27f1d0" fillOpacity="0.35"/><path d="M235 93 L243 93 L243 253 L243 389" fill="none" stroke="#27f1d0" strokeOpacity="0.16" strokeWidth="2"/>
<circle cx="243" cy="389" r="5" fill="#27f1d0" fillOpacity="0.35"/><path d="M199 558 L391 558 L391 578" fill="none" stroke="#27f1d0" strokeOpacity="0.16" strokeWidth="2"/>
<circle cx="391" cy="578" r="5" fill="#27f1d0" fillOpacity="0.35"/><path d="M951 98 L1096 98 L1195 98 L1195 234" fill="none" stroke="#27f1d0" strokeOpacity="0.16" strokeWidth="2"/>
<circle cx="1195" cy="234" r="5" fill="#27f1d0" fillOpacity="0.35"/><path d="M151 557 L320 557 L320 630 L355 630" fill="none" stroke="#27f1d0" strokeOpacity="0.16" strokeWidth="2"/>
<circle cx="355" cy="630" r="5" fill="#27f1d0" fillOpacity="0.35"/><path d="M1178 315 L1200 315 L1200 315 L1200 390 L1200 390" fill="none" stroke="#27f1d0" strokeOpacity="0.16" strokeWidth="2"/>
<circle cx="1200" cy="390" r="5" fill="#27f1d0" fillOpacity="0.35"/><path d="M343 348 L304 348 L304 404 L304 558 L483 558" fill="none" stroke="#27f1d0" strokeOpacity="0.16" strokeWidth="2"/>
<circle cx="483" cy="558" r="5" fill="#27f1d0" fillOpacity="0.35"/>
<rect x="0" y="0" width="1200" height="6" fill="#27f1d0"/>
<text x="86" y="142" fontFamily="'Big Shoulders Display', sans-serif" fontSize="92" fontWeight="800" fill="#F2F3F7" opacity="0.92">AI TECH</text>
<rect x="86" y="166" width="120" height="5" fill="#27f1d0"/>
<rect x="86" y="60" width="10" height="10" fill="#27f1d0"/>
<rect x="104" y="78" width="6" height="6" fill="#27f1d0" opacity="0.5"/>
<g transform="translate(1030 260)" fill="none" stroke="#27f1d0" strokeWidth="5" strokeLinecap="round" strokeLinejoin="round"><path d="M65 0 L130 16.900000000000002 L122.19999999999999 85.8 Q101.4 117 65 130 Q28.6 117 7.8 85.8 L0 16.900000000000002 Z"/><path d="M36.400000000000006 65 L57.2 85.8 L96.2 41.6" strokeWidth="5"/></g>
<text x="86" y="360" fontFamily="'Big Shoulders Display', sans-serif" fontSize="64" fontWeight="800" fill="#F2F3F7">How to Set Up Private Browsing in</text>
<text x="86" y="429" fontFamily="'Big Shoulders Display', sans-serif" fontSize="64" fontWeight="800" fill="#F2F3F7">Any Browser</text>
<text x="86" y="566" fontFamily="IBM Plex Mono, monospace" fontSize="30" letterSpacing="10" fill="#8891A6">BROWSER</text>
<text x="86" y="470" fontFamily="IBM Plex Mono, monospace" fontSize="20" letterSpacing="6" fill="#27f1d0">AI TECH MEDIA</text>
<rect x="1096" y="460" width="18" height="110" fill="#27f1d0" opacity="0.9"/>
<rect x="1122" y="484" width="8" height="86" fill="#27f1d0" opacity="0.45"/>
<rect x="86" y="594" width="1028" height="2" fill="#27f1d0" opacity="0.35"/>
</svg>
