<svg xmlns="http://www.w3.org/2000/svg" viewBox="0 0 1200 630" role="img" aria-label="How to Create a Strong Password">
<defs>
<linearGradient id="bg-a-howtocreateastrongpassword" x1="0" y1="0" x2="1" y2="1">
<stop offset="0%" stopColor="#0D0E16"/>
<stop offset="100%" stopColor="#1B1E31"/>
</linearGradient>
<radialGradient id="glow-a-howtocreateastrongpassword" cx="72%" cy="18%" r="85%">
<stop offset="0%" stopColor="#27c2f1" stopOpacity="0.34"/>
<stop offset="100%" stopColor="#27c2f1" stopOpacity="0"/>
</radialGradient>
<pattern id="grid-a-howtocreateastrongpassword" width="44" height="44" patternUnits="userSpaceOnUse">
<path d="M44 0H0V44" fill="none" stroke="#8891A6" strokeOpacity="0.1" strokeWidth="1"/>
</pattern>
</defs>
<rect width="1200" height="630" fill="url(#bg-a-howtocreateastrongpassword)"/><rect width="1200" height="630" fill="url(#glow-a-howtocreateastrongpassword)"/><rect width="1200" height="630" fill="url(#grid-a-howtocreateastrongpassword)"/>
<path d="M916 23 L916 44 L1079 44" fill="none" stroke="#27c2f1" strokeOpacity="0.16" strokeWidth="2"/>
<circle cx="1079" cy="44" r="5" fill="#27c2f1" fillOpacity="0.35"/><path d="M71 192 L247 192 L247 357" fill="none" stroke="#27c2f1" strokeOpacity="0.16" strokeWidth="2"/>
<circle cx="247" cy="357" r="5" fill="#27c2f1" fillOpacity="0.35"/><path d="M674 372 L674 361 L674 507" fill="none" stroke="#27c2f1" strokeOpacity="0.16" strokeWidth="2"/>
<circle cx="674" cy="507" r="5" fill="#27c2f1" fillOpacity="0.35"/><path d="M399 589 L428 589 L428 630 L428 630" fill="none" stroke="#27c2f1" strokeOpacity="0.16" strokeWidth="2"/>
<circle cx="428" cy="630" r="5" fill="#27c2f1" fillOpacity="0.35"/><path d="M204 445 L204 444 L241 444 L418 444 L394 444" fill="none" stroke="#27c2f1" strokeOpacity="0.16" strokeWidth="2"/>
<circle cx="394" cy="444" r="5" fill="#27c2f1" fillOpacity="0.35"/><path d="M610 628 L610 621 L639 621" fill="none" stroke="#27c2f1" strokeOpacity="0.16" strokeWidth="2"/>
<circle cx="639" cy="621" r="5" fill="#27c2f1" fillOpacity="0.35"/><path d="M95 389 L169 389 L327 389" fill="none" stroke="#27c2f1" strokeOpacity="0.16" strokeWidth="2"/>
<circle cx="327" cy="389" r="5" fill="#27c2f1" fillOpacity="0.35"/><path d="M70 238 L67 238 L109 238 L109 244" fill="none" stroke="#27c2f1" strokeOpacity="0.16" strokeWidth="2"/>
<circle cx="109" cy="244" r="5" fill="#27c2f1" fillOpacity="0.35"/><path d="M1041 42 L1041 86 L1041 228" fill="none" stroke="#27c2f1" strokeOpacity="0.16" strokeWidth="2"/>
<circle cx="1041" cy="228" r="5" fill="#27c2f1" fillOpacity="0.35"/><path d="M911 359 L911 449 L911 557 L911 548" fill="none" stroke="#27c2f1" strokeOpacity="0.16" strokeWidth="2"/>
<circle cx="911" cy="548" r="5" fill="#27c2f1" fillOpacity="0.35"/><path d="M792 617 L792 585 L792 630" fill="none" stroke="#27c2f1" strokeOpacity="0.16" strokeWidth="2"/>
<circle cx="792" cy="630" r="5" fill="#27c2f1" fillOpacity="0.35"/>
<rect x="0" y="0" width="1200" height="6" fill="#27c2f1"/>
<text x="86" y="142" fontFamily="'Big Shoulders Display', sans-serif" fontSize="92" fontWeight="800" fill="#F2F3F7" opacity="0.92">AI TECH</text>
<rect x="86" y="166" width="120" height="5" fill="#27c2f1"/>
<rect x="86" y="60" width="10" height="10" fill="#27c2f1"/>
<rect x="104" y="78" width="6" height="6" fill="#27c2f1" opacity="0.5"/>
<g transform="translate(1030 260)" fill="none" stroke="#27c2f1" strokeWidth="5" strokeLinecap="round" strokeLinejoin="round"><path d="M65 0 L130 16.900000000000002 L122.19999999999999 85.8 Q101.4 117 65 130 Q28.6 117 7.8 85.8 L0 16.900000000000002 Z"/><path d="M36.400000000000006 65 L57.2 85.8 L96.2 41.6" strokeWidth="5"/></g>
<text x="86" y="360" fontFamily="'Big Shoulders Display', sans-serif" fontSize="64" fontWeight="800" fill="#F2F3F7">How to Create a Strong Password</text>
<text x="86" y="566" fontFamily="IBM Plex Mono, monospace" fontSize="30" letterSpacing="10" fill="#8891A6">PASSWORDS</text>
<text x="86" y="470" fontFamily="IBM Plex Mono, monospace" fontSize="20" letterSpacing="6" fill="#27c2f1">AI TECH MEDIA</text>
<rect x="1096" y="460" width="18" height="110" fill="#27c2f1" opacity="0.9"/>
<rect x="1122" y="484" width="8" height="86" fill="#27c2f1" opacity="0.45"/>
<rect x="86" y="594" width="1028" height="2" fill="#27c2f1" opacity="0.35"/>
</svg>
