<svg xmlns="http://www.w3.org/2000/svg" viewBox="0 0 1200 630" role="img" aria-label="How to Test a Hard Drive for Errors">
<defs>
<linearGradient id="bg-a-howtotestaharddriveforerrors" x1="0" y1="0" x2="1" y2="1">
<stop offset="0%" stopColor="#0D0E16"/>
<stop offset="100%" stopColor="#1B1E31"/>
</linearGradient>
<radialGradient id="glow-a-howtotestaharddriveforerrors" cx="72%" cy="18%" r="85%">
<stop offset="0%" stopColor="#f16e27" stopOpacity="0.34"/>
<stop offset="100%" stopColor="#f16e27" stopOpacity="0"/>
</radialGradient>
<pattern id="grid-a-howtotestaharddriveforerrors" width="44" height="44" patternUnits="userSpaceOnUse">
<path d="M44 0H0V44" fill="none" stroke="#8891A6" strokeOpacity="0.1" strokeWidth="1"/>
</pattern>
</defs>
<rect width="1200" height="630" fill="url(#bg-a-howtotestaharddriveforerrors)"/><rect width="1200" height="630" fill="url(#glow-a-howtotestaharddriveforerrors)"/><rect width="1200" height="630" fill="url(#grid-a-howtotestaharddriveforerrors)"/>
<rect x="0" y="0" width="1200" height="6" fill="#f16e27"/>
<rect x="0" y="624" width="1200" height="6" fill="#f16e27"/>
<text x="600" y="118" fontFamily="IBM Plex Mono, monospace" fontSize="26" letterSpacing="12" fill="#f16e27" text-anchor="middle">STORAGE</text>
<circle cx="600" cy="290" r="196" fill="none" stroke="#f16e27" strokeOpacity="0.12" strokeWidth="2"/>
<g transform="translate(450 140)" fill="none" stroke="#f16e27" strokeWidth="11" strokeLinecap="round" strokeLinejoin="round"><line x1="36" y1="0" x2="36" y2="36"/><line x1="36" y1="264" x2="36" y2="300"/><line x1="0" y1="36" x2="36" y2="36"/><line x1="264" y1="36" x2="300" y2="36"/><line x1="96" y1="0" x2="96" y2="36"/><line x1="96" y1="264" x2="96" y2="300"/><line x1="0" y1="96" x2="36" y2="96"/><line x1="264" y1="96" x2="300" y2="96"/><line x1="156" y1="0" x2="156" y2="36"/><line x1="156" y1="264" x2="156" y2="300"/><line x1="0" y1="156" x2="36" y2="156"/><line x1="264" y1="156" x2="300" y2="156"/><line x1="216" y1="0" x2="216" y2="36"/><line x1="216" y1="264" x2="216" y2="300"/><line x1="0" y1="216" x2="36" y2="216"/><line x1="264" y1="216" x2="300" y2="216"/><rect x="36" y="36" width="228" height="228" rx="24"/><rect x="90" y="90" width="120" height="120" rx="12"/></g>
<text x="600" y="506" text-anchor="middle" fontFamily="'Big Shoulders Display', sans-serif" fontSize="54" fontWeight="800" fill="#F2F3F7">How to Test a Hard Drive for Errors</text>
<text x="600" y="612" fontFamily="IBM Plex Mono, monospace" fontSize="18" letterSpacing="8" fill="#8891A6" text-anchor="middle">AI TECH MEDIA</text>
</svg>
