<svg xmlns="http://www.w3.org/2000/svg" viewBox="0 0 1200 630" role="img" aria-label="How to Change Windows File Associations">
<defs>
<linearGradient id="bg-a-howtochangewindowsfileassociations" x1="0" y1="0" x2="1" y2="1">
<stop offset="0%" stopColor="#0D0E16"/>
<stop offset="100%" stopColor="#1B1E31"/>
</linearGradient>
<radialGradient id="glow-a-howtochangewindowsfileassociations" cx="72%" cy="18%" r="85%">
<stop offset="0%" stopColor="#2778f1" stopOpacity="0.34"/>
<stop offset="100%" stopColor="#2778f1" stopOpacity="0"/>
</radialGradient>
<pattern id="grid-a-howtochangewindowsfileassociations" width="44" height="44" patternUnits="userSpaceOnUse">
<path d="M44 0H0V44" fill="none" stroke="#8891A6" strokeOpacity="0.1" strokeWidth="1"/>
</pattern>
</defs>
<rect width="1200" height="630" fill="url(#bg-a-howtochangewindowsfileassociations)"/><rect width="1200" height="630" fill="url(#glow-a-howtochangewindowsfileassociations)"/><rect width="1200" height="630" fill="url(#grid-a-howtochangewindowsfileassociations)"/>
<path d="M655 369 L655 410 L779 410" fill="none" stroke="#2778f1" strokeOpacity="0.16" strokeWidth="2"/>
<circle cx="779" cy="410" r="5" fill="#2778f1" fillOpacity="0.35"/><path d="M1140 478 L1155 478 L1174 478" fill="none" stroke="#2778f1" strokeOpacity="0.16" strokeWidth="2"/>
<circle cx="1174" cy="478" r="5" fill="#2778f1" fillOpacity="0.35"/><path d="M1042 18 L1042 41 L1042 192" fill="none" stroke="#2778f1" strokeOpacity="0.16" strokeWidth="2"/>
<circle cx="1042" cy="192" r="5" fill="#2778f1" fillOpacity="0.35"/><path d="M188 135 L257 135 L257 242 L257 410 L257 456" fill="none" stroke="#2778f1" strokeOpacity="0.16" strokeWidth="2"/>
<circle cx="257" cy="456" r="5" fill="#2778f1" fillOpacity="0.35"/><path d="M271 419 L271 455 L304 455 L255 455" fill="none" stroke="#2778f1" strokeOpacity="0.16" strokeWidth="2"/>
<circle cx="255" cy="455" r="5" fill="#2778f1" fillOpacity="0.35"/><path d="M966 385 L1109 385 L1109 526 L1109 630" fill="none" stroke="#2778f1" strokeOpacity="0.16" strokeWidth="2"/>
<circle cx="1109" cy="630" r="5" fill="#2778f1" fillOpacity="0.35"/><path d="M922 251 L1094 251 L1194 251" fill="none" stroke="#2778f1" strokeOpacity="0.16" strokeWidth="2"/>
<circle cx="1194" cy="251" r="5" fill="#2778f1" fillOpacity="0.35"/><path d="M962 289 L962 238 L1104 238" fill="none" stroke="#2778f1" strokeOpacity="0.16" strokeWidth="2"/>
<circle cx="1104" cy="238" r="5" fill="#2778f1" fillOpacity="0.35"/><path d="M336 20 L336 27 L336 205 L336 407 L336 551" fill="none" stroke="#2778f1" strokeOpacity="0.16" strokeWidth="2"/>
<circle cx="336" cy="551" r="5" fill="#2778f1" fillOpacity="0.35"/><path d="M1103 352 L1200 352 L1200 501 L1200 501" fill="none" stroke="#2778f1" strokeOpacity="0.16" strokeWidth="2"/>
<circle cx="1200" cy="501" r="5" fill="#2778f1" fillOpacity="0.35"/><path d="M294 20 L250 20 L250 89 L250 186" fill="none" stroke="#2778f1" strokeOpacity="0.16" strokeWidth="2"/>
<circle cx="250" cy="186" r="5" fill="#2778f1" fillOpacity="0.35"/>
<rect x="0" y="0" width="1200" height="6" fill="#2778f1"/>
<text x="86" y="142" fontFamily="'Big Shoulders Display', sans-serif" fontSize="92" fontWeight="800" fill="#F2F3F7" opacity="0.92">AI TECH</text>
<rect x="86" y="166" width="120" height="5" fill="#2778f1"/>
<rect x="86" y="60" width="10" height="10" fill="#2778f1"/>
<rect x="104" y="78" width="6" height="6" fill="#2778f1" opacity="0.5"/>
<g transform="translate(1030 260)" fill="none" stroke="#2778f1" strokeWidth="5" strokeLinecap="round" strokeLinejoin="round"><rect x="0" y="0" width="65" height="65" rx="10.4"/><rect x="72.80000000000001" y="0" width="65" height="65" rx="10.4"/><rect x="0" y="72.80000000000001" width="65" height="65" rx="10.4"/><rect x="72.80000000000001" y="72.80000000000001" width="65" height="65" rx="10.4"/></g>
<text x="86" y="360" fontFamily="'Big Shoulders Display', sans-serif" fontSize="64" fontWeight="800" fill="#F2F3F7">How to Change Windows File</text>
<text x="86" y="429" fontFamily="'Big Shoulders Display', sans-serif" fontSize="64" fontWeight="800" fill="#F2F3F7">Associations</text>
<text x="86" y="566" fontFamily="IBM Plex Mono, monospace" fontSize="30" letterSpacing="10" fill="#8891A6">FILES</text>
<text x="86" y="470" fontFamily="IBM Plex Mono, monospace" fontSize="20" letterSpacing="6" fill="#2778f1">AI TECH MEDIA</text>
<rect x="1096" y="460" width="18" height="110" fill="#2778f1" opacity="0.9"/>
<rect x="1122" y="484" width="8" height="86" fill="#2778f1" opacity="0.45"/>
<rect x="86" y="594" width="1028" height="2" fill="#2778f1" opacity="0.35"/>
</svg>
