<svg xmlns="http://www.w3.org/2000/svg" viewBox="0 0 1200 630" role="img" aria-label="How to Transcribe Audio with AI">
<defs>
<linearGradient id="bg-a-howtotranscribeaudiowithai" x1="0" y1="0" x2="1" y2="1">
<stop offset="0%" stopColor="#0D0E16"/>
<stop offset="100%" stopColor="#1B1E31"/>
</linearGradient>
<radialGradient id="glow-a-howtotranscribeaudiowithai" cx="72%" cy="18%" r="85%">
<stop offset="0%" stopColor="#f12764" stopOpacity="0.34"/>
<stop offset="100%" stopColor="#f12764" stopOpacity="0"/>
</radialGradient>
<pattern id="grid-a-howtotranscribeaudiowithai" width="44" height="44" patternUnits="userSpaceOnUse">
<path d="M44 0H0V44" fill="none" stroke="#8891A6" strokeOpacity="0.1" strokeWidth="1"/>
</pattern>
</defs>
<rect width="1200" height="630" fill="url(#bg-a-howtotranscribeaudiowithai)"/><rect width="1200" height="630" fill="url(#glow-a-howtotranscribeaudiowithai)"/><rect width="1200" height="630" fill="url(#grid-a-howtotranscribeaudiowithai)"/>
<path d="M787 74 L787 181 L941 181" fill="none" stroke="#f12764" strokeOpacity="0.16" strokeWidth="2"/>
<circle cx="941" cy="181" r="5" fill="#f12764" fillOpacity="0.35"/><path d="M302 389 L400 389 L547 389" fill="none" stroke="#f12764" strokeOpacity="0.16" strokeWidth="2"/>
<circle cx="547" cy="389" r="5" fill="#f12764" fillOpacity="0.35"/><path d="M307 219 L425 219 L500 219 L500 377" fill="none" stroke="#f12764" strokeOpacity="0.16" strokeWidth="2"/>
<circle cx="500" cy="377" r="5" fill="#f12764" fillOpacity="0.35"/><path d="M896 62 L896 53 L896 208" fill="none" stroke="#f12764" strokeOpacity="0.16" strokeWidth="2"/>
<circle cx="896" cy="208" r="5" fill="#f12764" fillOpacity="0.35"/><path d="M475 484 L475 630 L471 630 L553 630" fill="none" stroke="#f12764" strokeOpacity="0.16" strokeWidth="2"/>
<circle cx="553" cy="630" r="5" fill="#f12764" fillOpacity="0.35"/><path d="M127 383 L162 383 L162 486 L138 486 L138 468" fill="none" stroke="#f12764" strokeOpacity="0.16" strokeWidth="2"/>
<circle cx="138" cy="468" r="5" fill="#f12764" fillOpacity="0.35"/><path d="M970 224 L1046 224 L1144 224" fill="none" stroke="#f12764" strokeOpacity="0.16" strokeWidth="2"/>
<circle cx="1144" cy="224" r="5" fill="#f12764" fillOpacity="0.35"/><path d="M855 258 L855 407 L878 407" fill="none" stroke="#f12764" strokeOpacity="0.16" strokeWidth="2"/>
<circle cx="878" cy="407" r="5" fill="#f12764" fillOpacity="0.35"/><path d="M1044 299 L1044 252 L1003 252" fill="none" stroke="#f12764" strokeOpacity="0.16" strokeWidth="2"/>
<circle cx="1003" cy="252" r="5" fill="#f12764" fillOpacity="0.35"/><path d="M815 585 L815 630 L778 630 L909 630" fill="none" stroke="#f12764" strokeOpacity="0.16" strokeWidth="2"/>
<circle cx="909" cy="630" r="5" fill="#f12764" fillOpacity="0.35"/><path d="M958 45 L913 45 L891 45 L891 67 L891 194" fill="none" stroke="#f12764" strokeOpacity="0.16" strokeWidth="2"/>
<circle cx="891" cy="194" r="5" fill="#f12764" fillOpacity="0.35"/>
<rect x="0" y="0" width="1200" height="6" fill="#f12764"/>
<text x="86" y="142" fontFamily="'Big Shoulders Display', sans-serif" fontSize="92" fontWeight="800" fill="#F2F3F7" opacity="0.92">AI TECH</text>
<rect x="86" y="166" width="120" height="5" fill="#f12764"/>
<rect x="86" y="60" width="10" height="10" fill="#f12764"/>
<rect x="104" y="78" width="6" height="6" fill="#f12764" opacity="0.5"/>
<g transform="translate(1030 260)" fill="none" stroke="#f12764" strokeWidth="5" strokeLinecap="round" strokeLinejoin="round"><circle cx="65" cy="65" r="16.900000000000002" fill="#f12764" stroke="none"/><line x1="65" y1="65" x2="10.4" y2="18.200000000000003"/><circle cx="10.4" cy="18.200000000000003" r="9.100000000000001"/><line x1="65" y1="65" x2="117" y2="23.4"/><circle cx="117" cy="23.4" r="9.100000000000001"/><line x1="65" y1="65" x2="111.8" y2="109.2"/><circle cx="111.8" cy="109.2" r="9.100000000000001"/><line x1="65" y1="65" x2="18.200000000000003" y2="106.6"/><circle cx="18.200000000000003" cy="106.6" r="9.100000000000001"/></g>
<text x="86" y="360" fontFamily="'Big Shoulders Display', sans-serif" fontSize="64" fontWeight="800" fill="#F2F3F7">How to Transcribe Audio with AI</text>
<text x="86" y="566" fontFamily="IBM Plex Mono, monospace" fontSize="30" letterSpacing="10" fill="#8891A6">TRANSCRIPTION</text>
<text x="86" y="470" fontFamily="IBM Plex Mono, monospace" fontSize="20" letterSpacing="6" fill="#f12764">AI TECH MEDIA</text>
<rect x="1096" y="460" width="18" height="110" fill="#f12764" opacity="0.9"/>
<rect x="1122" y="484" width="8" height="86" fill="#f12764" opacity="0.45"/>
<rect x="86" y="594" width="1028" height="2" fill="#f12764" opacity="0.35"/>
</svg>
