<svg xmlns="http://www.w3.org/2000/svg" viewBox="0 0 1200 630" role="img" aria-label="How to Lock Down a VPN Connection">
<defs>
<linearGradient id="bg-a-howtolockdownavpnconnection" x1="0" y1="0" x2="1" y2="1">
<stop offset="0%" stopColor="#0D0E16"/>
<stop offset="100%" stopColor="#1B1E31"/>
</linearGradient>
<radialGradient id="glow-a-howtolockdownavpnconnection" cx="72%" cy="18%" r="85%">
<stop offset="0%" stopColor="#27f1bf" stopOpacity="0.34"/>
<stop offset="100%" stopColor="#27f1bf" stopOpacity="0"/>
</radialGradient>
<pattern id="grid-a-howtolockdownavpnconnection" width="44" height="44" patternUnits="userSpaceOnUse">
<path d="M44 0H0V44" fill="none" stroke="#8891A6" strokeOpacity="0.1" strokeWidth="1"/>
</pattern>
</defs>
<rect width="1200" height="630" fill="url(#bg-a-howtolockdownavpnconnection)"/><rect width="1200" height="630" fill="url(#glow-a-howtolockdownavpnconnection)"/><rect width="1200" height="630" fill="url(#grid-a-howtolockdownavpnconnection)"/>
<path d="M607 401 L726 401 L825 401" fill="none" stroke="#27f1bf" strokeOpacity="0.16" strokeWidth="2"/>
<circle cx="825" cy="401" r="5" fill="#27f1bf" fillOpacity="0.35"/><path d="M117 149 L117 150 L117 237 L153 237" fill="none" stroke="#27f1bf" strokeOpacity="0.16" strokeWidth="2"/>
<circle cx="153" cy="237" r="5" fill="#27f1bf" fillOpacity="0.35"/><path d="M535 28 L535 0 L535 153 L686 153 L779 153" fill="none" stroke="#27f1bf" strokeOpacity="0.16" strokeWidth="2"/>
<circle cx="779" cy="153" r="5" fill="#27f1bf" fillOpacity="0.35"/><path d="M1145 540 L1194 540 L1194 612" fill="none" stroke="#27f1bf" strokeOpacity="0.16" strokeWidth="2"/>
<circle cx="1194" cy="612" r="5" fill="#27f1bf" fillOpacity="0.35"/><path d="M436 100 L436 71 L630 71" fill="none" stroke="#27f1bf" strokeOpacity="0.16" strokeWidth="2"/>
<circle cx="630" cy="71" r="5" fill="#27f1bf" fillOpacity="0.35"/><path d="M532 75 L532 58 L532 201 L532 216 L532 257" fill="none" stroke="#27f1bf" strokeOpacity="0.16" strokeWidth="2"/>
<circle cx="532" cy="257" r="5" fill="#27f1bf" fillOpacity="0.35"/><path d="M936 24 L936 46 L936 26 L1018 26 L1018 31" fill="none" stroke="#27f1bf" strokeOpacity="0.16" strokeWidth="2"/>
<circle cx="1018" cy="31" r="5" fill="#27f1bf" fillOpacity="0.35"/><path d="M562 257 L642 257 L813 257 L813 341 L934 341" fill="none" stroke="#27f1bf" strokeOpacity="0.16" strokeWidth="2"/>
<circle cx="934" cy="341" r="5" fill="#27f1bf" fillOpacity="0.35"/><path d="M216 620 L227 620 L354 620 L440 620" fill="none" stroke="#27f1bf" strokeOpacity="0.16" strokeWidth="2"/>
<circle cx="440" cy="620" r="5" fill="#27f1bf" fillOpacity="0.35"/><path d="M960 366 L960 378 L955 378 L1160 378 L1200 378" fill="none" stroke="#27f1bf" strokeOpacity="0.16" strokeWidth="2"/>
<circle cx="1200" cy="378" r="5" fill="#27f1bf" fillOpacity="0.35"/><path d="M801 96 L825 96 L825 159 L825 260 L825 315" fill="none" stroke="#27f1bf" strokeOpacity="0.16" strokeWidth="2"/>
<circle cx="825" cy="315" r="5" fill="#27f1bf" fillOpacity="0.35"/>
<rect x="0" y="0" width="1200" height="6" fill="#27f1bf"/>
<text x="86" y="142" fontFamily="'Big Shoulders Display', sans-serif" fontSize="92" fontWeight="800" fill="#F2F3F7" opacity="0.92">AI TECH</text>
<rect x="86" y="166" width="120" height="5" fill="#27f1bf"/>
<rect x="86" y="60" width="10" height="10" fill="#27f1bf"/>
<rect x="104" y="78" width="6" height="6" fill="#27f1bf" opacity="0.5"/>
<g transform="translate(1030 260)" fill="none" stroke="#27f1bf" strokeWidth="5" strokeLinecap="round" strokeLinejoin="round"><circle cx="65" cy="65" r="11.7" fill="#27f1bf" stroke="none"/><line x1="65" y1="65" x2="0" y2="0"/><line x1="65" y1="65" x2="130" y2="0"/><line x1="65" y1="65" x2="130" y2="130"/><line x1="65" y1="65" x2="0" y2="130"/><circle cx="0" cy="0" r="7.15"/><circle cx="130" cy="0" r="7.15"/><circle cx="130" cy="130" r="7.15"/><circle cx="0" cy="130" r="7.15"/></g>
<text x="86" y="360" fontFamily="'Big Shoulders Display', sans-serif" fontSize="64" fontWeight="800" fill="#F2F3F7">How to Lock Down a VPN Connection</text>
<text x="86" y="566" fontFamily="IBM Plex Mono, monospace" fontSize="30" letterSpacing="10" fill="#8891A6">TROUBLESHOOTING</text>
<text x="86" y="470" fontFamily="IBM Plex Mono, monospace" fontSize="20" letterSpacing="6" fill="#27f1bf">AI TECH MEDIA</text>
<rect x="1096" y="460" width="18" height="110" fill="#27f1bf" opacity="0.9"/>
<rect x="1122" y="484" width="8" height="86" fill="#27f1bf" opacity="0.45"/>
<rect x="86" y="594" width="1028" height="2" fill="#27f1bf" opacity="0.35"/>
</svg>
